<svg version="1.1" id="Layer_1" xmlns="http://www.w3.org/2000/svg" xmlns:xlink="http://www.w3.org/1999/xlink" x="0px" y="0px"
	 width="100%" viewBox="0 0 418 435" enable-background="new 0 0 418 435" xml:space="preserve">
<path fill="#000000" opacity="1.000000" stroke="none" 
	d="
M419.000000,156.000000 
	C419.000000,249.666656 419.000000,342.833313 419.000000,436.000000 
	C279.666687,436.000000 140.333389,436.000000 1.000062,436.000000 
	C1.000042,291.000031 1.000042,146.000092 1.000021,1.000101 
	C140.333267,1.000067 279.666534,1.000067 418.999908,1.000034 
	C419.000000,52.500000 419.000000,104.000000 419.000000,156.000000 
M225.014023,288.099640 
	C225.014023,279.084991 225.014023,270.070343 225.014023,260.442932 
	C221.926041,261.051270 219.522537,261.524750 216.977814,262.922607 
	C216.663620,271.338104 216.349426,279.753632 215.307083,287.744171 
	C214.830399,284.169830 214.353729,280.595490 213.987869,276.180908 
	C213.227341,271.577301 212.466797,266.973724 211.687286,262.255280 
	C208.044159,261.879181 204.509460,261.514252 200.098663,261.018097 
	C199.732056,262.282837 199.067459,263.543091 199.048431,264.813019 
	C198.944275,271.767914 198.998383,278.725189 198.998322,285.681641 
	C198.998230,295.742584 198.998306,305.803558 198.998306,316.444153 
	C201.982468,315.923187 204.409424,315.499512 206.975632,314.138153 
	C206.983932,306.199463 206.960571,298.260376 207.050400,290.322601 
	C207.059204,289.545715 207.764328,288.776703 208.277588,288.786926 
	C209.507950,296.492432 210.670181,304.209991 212.030136,311.892578 
	C212.281403,313.312103 213.282913,315.709259 214.021393,315.741394 
	C217.354095,315.886353 220.716751,315.343170 224.846710,314.648132 
	C224.844223,306.107361 224.841736,297.566559 225.014023,288.099640 
M183.306900,171.266144 
	C181.213531,171.889053 179.120163,172.511978 176.294281,173.259232 
	C167.358566,175.654251 163.779480,178.110382 165.051178,190.691711 
	C165.089981,191.095703 165.128769,191.499710 165.063507,192.847778 
	C165.043777,199.480637 165.141068,206.116470 164.971893,212.745514 
	C164.797714,219.570847 167.559433,224.644699 173.609604,228.822983 
	C175.358337,229.550842 177.107071,230.278717 179.257538,231.738968 
	C189.176575,231.774719 199.095612,231.810455 209.858490,231.982803 
	C211.612503,232.195816 213.378082,232.340408 215.118484,232.634079 
	C221.549789,233.719223 231.043198,230.673553 234.781601,224.739792 
	C239.809937,220.042511 238.832230,213.876770 239.084488,207.929703 
	C239.167862,205.964005 240.357422,204.045227 241.639755,202.187317 
	C244.087585,202.068893 246.535400,201.950455 249.888184,201.982986 
	C253.248123,202.026489 256.608063,202.069992 260.475525,202.801941 
	C265.306549,202.834183 270.137573,202.866440 275.625916,203.219177 
	C279.102081,203.504395 282.574921,203.878555 286.056885,204.008545 
	C286.866943,204.038803 288.390106,203.290100 288.426514,202.811676 
	C288.706726,199.128815 290.643860,195.151199 286.587799,191.216766 
	C278.386292,191.202545 270.184814,191.188339 261.056671,191.041351 
	C259.093719,191.032166 257.126740,191.100754 255.168640,190.998657 
	C250.062576,190.732407 244.960434,190.391357 239.924652,189.205658 
	C240.000336,179.923279 234.937347,174.701630 224.618744,173.255478 
	C221.078445,172.538483 217.538147,171.821503 213.164764,171.012283 
	C211.492126,170.991150 209.819473,170.970016 208.054749,170.102463 
	C207.867401,167.743835 208.569214,165.129547 204.609283,164.891159 
	C196.791763,164.420547 196.087509,164.606537 194.017242,169.985611 
	C190.692337,170.368759 187.367416,170.751907 183.306900,171.266144 
M155.874985,314.964996 
	C157.798080,314.964996 159.721176,314.964996 162.130371,314.964996 
	C162.130371,305.392700 162.130371,296.205017 162.507355,287.029236 
	C162.507355,287.029236 162.884094,287.047211 162.994919,287.840790 
	C163.325424,289.265747 163.615906,290.701385 163.993271,292.113831 
	C165.716965,298.565460 167.469772,305.009277 169.202499,311.458496 
	C170.244186,315.335663 173.261459,315.667389 176.181641,314.621277 
	C176.934052,314.351776 177.190414,311.072906 176.765854,309.408264 
	C174.165268,299.211609 171.270966,289.090179 168.583145,278.915009 
	C168.338745,277.989838 168.649994,276.767517 169.063400,275.844543 
	C171.051041,271.407074 173.162415,267.025055 175.358215,262.350098 
	C165.076263,261.512451 164.506836,261.888428 162.181625,269.504913 
	C162.075104,267.323059 161.968582,265.141235 161.981873,262.099762 
	C159.473755,261.597351 156.965652,261.094910 154.036087,260.508087 
	C154.036087,278.893219 154.031647,296.442474 154.075012,313.991669 
	C154.075714,314.278625 154.659943,314.564178 155.874985,314.964996 
M185.397812,314.837128 
	C187.825760,314.837128 190.253693,314.837128 192.954071,314.837128 
	C192.954071,297.430664 192.958740,280.243713 192.916245,263.056824 
	C192.915497,262.754028 192.348007,262.452576 191.183441,262.020752 
	C189.444168,262.067749 187.704895,262.114716 185.192169,262.412567 
	C185.180389,279.615082 185.168610,296.817596 185.397812,314.837128 
M149.702042,378.209534 
	C141.825684,375.063568 133.949310,371.917603 125.689110,368.145416 
	C124.885902,367.991577 124.028229,367.969788 123.287575,367.664307 
	C109.629471,362.031097 95.992462,356.346619 82.324760,350.736908 
	C81.233635,350.289062 79.951164,350.307404 78.757622,350.109100 
	C84.965347,354.122131 91.361847,357.277374 97.830841,360.276215 
	C107.180801,364.610596 116.583290,368.831665 126.325157,373.706573 
	C133.183167,376.865784 140.041183,380.024994 147.338058,383.758362 
	C153.571335,386.456879 159.804626,389.155396 166.678055,392.178864 
	C172.133301,394.737061 177.588547,397.295227 183.682327,400.176758 
	C190.464600,403.407074 197.246872,406.637390 204.676987,410.177887 
	C211.406540,413.448761 218.130341,416.731659 224.875000,419.971039 
	C225.516724,420.279236 226.476471,420.678162 226.972168,420.422211 
	C232.545792,417.544159 238.057434,414.546112 243.666046,411.449432 
	C243.666046,411.449432 243.700729,411.299835 244.410965,411.076721 
	C244.982895,410.731964 245.554825,410.387207 246.854553,409.992188 
	C251.947128,407.342865 257.039703,404.693542 262.874542,401.992065 
	C267.969818,399.347229 273.065125,396.702393 278.885620,394.021362 
	C285.977936,390.365967 293.070251,386.710602 300.884888,383.023224 
	C301.614532,382.694183 302.361633,382.398773 303.071106,382.030762 
	C310.109924,378.379517 317.142548,374.716309 324.897614,371.026184 
	C342.507843,362.285858 360.118073,353.545502 377.728333,344.805176 
	C377.517700,344.298370 377.307068,343.791534 377.096436,343.284729 
	C375.231232,343.927277 373.310211,344.443115 371.511139,345.235809 
	C365.805176,347.749847 360.137115,350.350586 354.468323,352.948212 
	C343.628601,357.915466 332.798553,362.903717 321.204987,367.966797 
	C313.126434,371.603455 305.047882,375.240143 296.205292,378.968231 
	C289.455444,381.934448 282.705597,384.900696 275.215210,387.991974 
	C269.465698,390.617737 263.716156,393.243500 257.218903,396.006256 
	C252.134689,398.296478 247.050476,400.586700 241.216797,403.006653 
	C238.101898,404.344879 234.752625,405.314178 231.927734,407.108917 
	C227.817322,409.720367 223.972397,409.140656 219.895996,407.443726 
	C215.296204,405.529022 210.662613,403.695496 205.704254,401.181427 
	C198.805618,398.510162 191.906982,395.838898 184.345993,392.814758 
	C178.578873,390.485596 172.811768,388.156464 166.688507,385.191162 
	C161.147507,383.076111 155.606491,380.961090 149.702042,378.209534 
M198.925919,126.269302 
	C199.293182,124.381081 199.847183,122.503693 199.957657,120.600563 
	C200.023956,119.458313 199.397949,118.275871 199.083069,117.111496 
	C198.066574,118.060379 196.186157,119.005211 196.181686,119.958847 
	C196.161301,124.306381 196.668076,128.656387 197.010300,133.786301 
	C197.003830,134.282745 196.813828,134.876892 197.018295,135.261047 
	C200.361343,141.541656 204.184814,147.752869 198.917297,154.867035 
	C198.828735,154.986649 198.782486,155.199265 198.820099,155.340988 
	C199.143600,156.559967 199.490982,157.772598 199.831223,158.987122 
	C200.889038,158.387634 202.391113,158.052795 202.931808,157.145218 
	C206.173492,151.704010 207.185989,145.989761 204.425674,139.952637 
	C202.477493,135.691757 200.662537,131.369965 198.925919,126.269302 
M118.501320,62.027504 
	C118.501320,62.027504 118.032394,62.136967 117.317917,62.264027 
	C104.342873,67.280586 91.367828,72.297150 78.392792,77.313713 
	C78.554428,77.838211 78.716072,78.362709 78.877716,78.887207 
	C92.925026,75.758072 106.222557,69.981956 120.770531,65.936501 
	C128.192383,63.341274 135.614227,60.746044 143.840836,58.036247 
	C150.906616,55.745449 157.972382,53.454647 165.824707,51.038990 
	C172.898224,48.744865 179.971756,46.450741 187.516754,44.041733 
	C187.516754,44.041733 187.975266,43.882793 188.500290,43.965172 
	C188.671738,43.920574 188.843185,43.875980 189.745209,43.703243 
	C196.163040,41.430851 202.580856,39.158459 209.784866,37.017227 
	C210.564606,36.816147 211.373550,36.690628 212.119614,36.402370 
	C220.179337,33.288349 228.243103,30.740635 236.750229,34.995949 
	C238.025650,35.633923 239.550995,35.772236 241.345367,36.782406 
	C242.262955,37.055775 243.180191,37.330288 244.098175,37.602322 
	C250.060181,39.369072 256.022339,41.135288 262.680786,43.203381 
	C268.452148,45.097172 274.223511,46.990963 280.667114,49.226070 
	C288.096466,51.536442 295.525787,53.846813 303.365234,56.772243 
	C311.573364,59.467873 319.781464,62.163506 328.773010,64.982780 
	C343.947083,69.834999 359.121124,74.687210 374.295197,79.539429 
	C374.576355,79.043518 374.857544,78.547615 375.138733,78.051704 
	C374.557373,77.749840 373.999725,77.385216 373.391174,77.155548 
	C365.340668,74.117523 357.297974,71.057770 349.222473,68.087318 
	C342.523560,65.623222 335.783875,63.269932 328.664642,60.249119 
	C320.436096,57.221317 312.207550,54.193516 303.316040,50.813480 
	C296.258423,48.195454 289.200806,45.577423 281.951080,42.464497 
	C281.644104,42.355377 281.337158,42.246262 280.505615,42.041481 
	C280.332703,42.082775 280.159821,42.124073 279.319611,41.836945 
	C273.231018,39.516109 267.142456,37.195278 260.688995,34.235252 
	C254.840317,32.141727 248.991623,30.048204 242.961456,27.443718 
	C242.648483,27.340059 242.335510,27.236399 241.503448,27.037235 
	C241.332886,27.080446 241.162338,27.123659 240.321060,26.836521 
	C237.362122,25.593872 234.391922,24.377228 231.447189,23.101774 
	C228.024612,21.619339 224.985458,20.473110 221.040024,22.757378 
	C216.764069,25.233000 211.732758,26.403980 206.303085,28.229513 
	C200.188370,30.782164 194.073654,33.334816 187.462021,35.991299 
	C187.299744,36.039230 187.137451,36.087158 186.501740,36.019058 
	C186.501740,36.019058 186.028717,36.136868 185.297409,36.235798 
	C178.182785,39.120514 171.068176,42.005230 163.192215,44.991154 
	C156.446381,47.623615 149.700546,50.256077 142.197845,52.996643 
	C134.787521,55.965107 127.377182,58.933567 119.465485,62.004257 
	C119.300568,62.047779 119.135651,62.091297 118.501320,62.027504 
M250.293533,279.256073 
	C249.047470,279.500885 247.783142,280.024536 246.558365,279.944305 
	C239.625900,279.490265 239.629135,279.440979 240.311615,286.305206 
	C241.614288,287.029663 243.772430,287.681152 243.766159,288.311066 
	C243.701294,294.822235 243.287033,301.329865 242.143005,307.938538 
	C241.094421,306.665131 239.166214,305.412201 239.136093,304.115112 
	C238.889893,293.515594 238.967926,282.907654 239.044434,272.302948 
	C239.052063,271.246796 239.706024,270.195312 240.764603,269.015320 
	C243.741653,267.656982 243.868073,269.470306 244.049744,271.726929 
	C244.362228,275.608643 247.451813,275.269562 249.947723,274.853699 
	C252.555710,274.419159 253.550705,272.903748 252.528595,269.878296 
	C250.146469,262.827118 247.496460,260.770050 239.247940,261.016205 
	C235.408524,261.822266 232.129272,263.221191 231.172501,268.317108 
	C231.117050,280.904755 231.047150,293.492371 231.046692,306.080017 
	C231.046661,306.745422 231.634476,307.410828 231.968933,308.813202 
	C233.148010,312.862701 235.756271,315.278809 240.822418,315.980774 
	C248.122894,315.997833 251.672989,313.170837 252.847015,306.636810 
	C252.898666,298.395447 253.013275,290.153320 252.914566,281.913757 
	C252.903442,280.984741 251.688004,280.070129 250.293533,279.256073 
M118.734390,267.210632 
	C117.177711,263.971252 115.019371,261.653595 110.210022,262.035065 
	C104.292747,262.181580 101.810280,264.108276 99.158043,270.344360 
	C99.107887,281.582581 99.041809,292.820770 99.048599,304.058960 
	C99.048996,304.707764 99.641891,305.356262 99.944008,306.763611 
	C100.095085,311.396576 103.871887,312.890076 107.861839,315.076324 
	C116.156464,314.909698 118.240738,313.503876 120.012856,306.038574 
	C120.005844,294.800812 120.034004,283.562775 119.949936,272.325592 
	C119.938683,270.822845 119.359825,269.324280 118.734390,267.210632 
M147.818314,306.715515 
	C147.884918,294.744507 147.967743,282.773499 147.974350,270.802460 
	C147.974716,270.145447 147.340973,269.488129 147.041107,268.118042 
	C144.700287,265.118073 143.127869,260.951569 137.190842,262.030426 
	C132.461548,261.329681 129.496460,263.427582 127.228485,268.258698 
	C127.200005,281.154541 127.171516,294.050415 127.244698,307.649597 
	C128.868042,311.645142 131.640594,314.246399 136.826920,315.015289 
	C142.723648,314.808746 146.132629,312.161682 147.818314,306.715515 
M278.167450,262.473175 
	C278.077484,275.505890 277.891602,288.539032 277.950714,301.571075 
	C277.970795,305.997192 278.608734,310.420471 279.849091,314.976746 
	C282.230743,314.930450 284.612427,314.884155 287.791870,315.000458 
	C293.908356,314.766418 297.244537,312.049316 299.016541,305.045563 
	C299.008942,294.810577 299.039520,284.575256 298.951691,274.340973 
	C298.938843,272.841675 298.362579,271.347198 298.020569,269.124969 
	C295.655670,264.728577 292.266632,261.954041 286.110352,262.032379 
	C283.728302,262.073334 281.346222,262.114319 278.167450,262.473175 
M72.186394,269.291718 
	C72.115311,281.581451 72.028008,293.871155 72.017708,306.160919 
	C72.017159,306.823059 72.662804,307.485718 72.974297,308.863770 
	C74.318520,313.990906 78.424416,314.711456 82.787331,314.992432 
	C87.237579,315.279053 90.090240,312.461182 91.759872,309.096466 
	C92.872543,306.854187 93.030441,303.448914 92.109879,301.173248 
	C91.638641,300.008362 87.859833,300.181488 85.355003,299.708130 
	C85.062042,302.637665 84.855240,304.705627 84.579536,307.462677 
	C82.648155,306.801086 81.216080,306.310516 79.931091,304.916687 
	C79.916489,293.619446 79.901894,282.322174 80.211197,270.416290 
	C83.891670,267.320984 83.582695,271.701630 85.156403,272.842163 
	C86.763023,274.006561 89.039261,274.668427 91.018150,274.659088 
	C91.671898,274.656006 92.977234,271.813477 92.832069,270.386475 
	C92.429955,266.433716 87.570221,262.521973 83.156746,262.021606 
	C78.551788,261.499481 74.998611,263.915283 72.186394,269.291718 
M307.925476,314.982849 
	C311.412201,314.985260 314.898987,315.005493 318.385590,314.986084 
	C324.217010,314.953644 324.760101,314.185242 323.095673,307.854919 
	C320.284088,307.854919 317.362793,307.854919 314.325409,307.854919 
	C314.325409,300.734894 314.325409,294.031036 314.325409,287.366608 
	C324.379303,286.305603 324.379303,286.305603 323.377289,279.896790 
	C320.423431,279.896790 317.370758,279.896790 314.394012,279.896790 
	C314.394012,275.937012 314.394012,272.558502 314.394012,269.214630 
	C324.638519,268.566742 324.638519,268.566742 323.264160,262.150452 
	C317.856750,262.150452 312.403412,262.150452 306.157288,262.478851 
	C306.105560,279.326263 306.043182,296.173676 306.044189,313.021088 
	C306.044220,313.640778 306.664612,314.260376 307.925476,314.982849 
M362.028778,311.205444 
	C364.591492,314.712677 368.063690,316.269592 372.284668,315.318665 
	C381.376801,313.270386 384.790588,300.116882 378.476624,291.819397 
	C375.328339,287.682068 372.142487,283.572906 369.026489,279.411469 
	C366.400482,275.904358 367.955658,269.674530 371.712585,268.441650 
	C371.956360,268.666016 372.385651,268.868805 372.414703,269.118195 
	C372.661835,271.240570 372.427704,273.528809 373.167297,275.447632 
	C373.714783,276.868134 375.327942,278.415283 376.774475,278.829224 
	C379.098572,279.494293 381.069061,278.562683 380.971710,275.516418 
	C380.913239,273.685333 381.031494,271.847961 380.956116,270.018127 
	C380.786957,265.912598 376.671356,261.095276 372.988342,260.607178 
	C366.669250,259.769714 362.589996,261.938446 360.992950,267.344421 
	C358.759674,274.904022 359.865265,281.592651 365.121857,288.019806 
	C368.783234,292.496490 374.142456,296.708923 372.923645,303.703644 
	C372.667206,305.175293 371.226105,306.440460 370.330872,307.800781 
	C369.554474,306.404419 368.204315,305.049896 368.098816,303.604553 
	C367.580292,296.497772 367.594757,296.405396 359.401672,297.678833 
	C360.200409,301.943604 360.996552,306.194366 362.028778,311.205444 
M351.159271,277.815308 
	C351.868042,272.688995 352.576843,267.562714 353.379974,261.754150 
	C349.711792,262.772034 345.698334,259.923309 344.996063,265.218842 
	C344.198914,271.229828 343.541412,277.259338 342.823212,283.280792 
	C342.569000,283.316254 342.314789,283.351715 342.060577,283.387207 
	C340.939819,276.370453 339.819031,269.353699 338.682831,262.240295 
	C335.954315,262.240295 333.532654,262.240295 330.893829,262.240295 
	C331.289581,264.258148 331.720001,265.987610 331.958710,267.743134 
	C333.973389,282.561188 335.867645,297.397003 338.113220,312.179596 
	C338.284027,313.303833 340.852142,314.753815 342.340881,314.795258 
	C343.849762,314.837219 346.595245,313.497864 346.751953,312.455780 
	C348.437622,301.243286 349.718140,289.969879 351.159271,277.815308 
M189.989655,148.568756 
	C189.304382,143.439819 188.619095,138.310883 187.912277,133.020844 
	C184.048996,132.485916 182.732086,134.907837 183.006607,138.667801 
	C183.108887,140.068512 183.755127,141.420761 184.028870,142.819489 
	C184.608200,145.779724 185.516861,148.757721 185.504410,151.725143 
	C185.494736,154.030167 184.294006,156.330200 183.622681,158.632462 
	C184.283112,158.958801 184.943542,159.285141 185.603973,159.611481 
	C186.718307,158.125153 188.153244,156.775101 188.858917,155.115051 
	C189.599976,153.371750 189.642426,151.331467 189.989655,148.568756 
M212.996948,141.668716 
	C214.330475,145.797577 215.343033,149.830597 213.443008,154.196579 
	C212.179733,157.099396 212.571289,157.329300 215.712463,158.287262 
	C221.209579,150.932816 218.910385,144.068069 214.435776,137.336960 
	C213.949707,138.546204 213.482864,139.707626 212.996948,141.668716 
z"/>
<path fill="#8B5833" opacity="1.000000" stroke="none" 
	d="
M361.910736,310.825317 
	C360.996552,306.194366 360.200409,301.943604 359.401672,297.678833 
	C367.594757,296.405396 367.580292,296.497772 368.098816,303.604553 
	C368.204315,305.049896 369.554474,306.404419 370.330872,307.800781 
	C371.226105,306.440460 372.667206,305.175293 372.923645,303.703644 
	C374.142456,296.708923 368.783234,292.496490 365.121857,288.019806 
	C359.865265,281.592651 358.759674,274.904022 360.992950,267.344421 
	C362.589996,261.938446 366.669250,259.769714 372.988342,260.607178 
	C376.671356,261.095276 380.786957,265.912598 380.956116,270.018127 
	C381.031494,271.847961 380.913239,273.685333 380.971710,275.516418 
	C381.069061,278.562683 379.098572,279.494293 376.774475,278.829224 
	C375.327942,278.415283 373.714783,276.868134 373.167297,275.447632 
	C372.427704,273.528809 372.661835,271.240570 372.414703,269.118195 
	C372.385651,268.868805 371.956360,268.666016 371.710297,268.444153 
	C367.955658,269.674530 366.400482,275.904358 369.026489,279.411469 
	C372.142487,283.572906 375.328339,287.682068 378.476624,291.819397 
	C384.790588,300.116882 381.376801,313.270386 372.284668,315.318665 
	C368.063690,316.269592 364.591492,314.712677 361.910736,310.825317 
z"/>
<path fill="#9B6640" opacity="1.000000" stroke="none" 
	d="
M351.134399,278.264221 
	C349.718140,289.969879 348.437622,301.243286 346.751953,312.455780 
	C346.595245,313.497864 343.849762,314.837219 342.340881,314.795258 
	C340.852142,314.753815 338.284027,313.303833 338.113220,312.179596 
	C335.867645,297.397003 333.973389,282.561188 331.958710,267.743134 
	C331.720001,265.987610 331.289581,264.258148 330.893829,262.240295 
	C333.532654,262.240295 335.954315,262.240295 338.682831,262.240295 
	C339.819031,269.353699 340.939819,276.370453 342.060577,283.387207 
	C342.314789,283.351715 342.569000,283.316254 342.823212,283.280792 
	C343.541412,277.259338 344.198914,271.229828 344.996063,265.218842 
	C345.698334,259.923309 349.711792,262.772034 353.379974,261.754150 
	C352.576843,267.562714 351.868042,272.688995 351.134399,278.264221 
z"/>
<path fill="#A9734A" opacity="1.000000" stroke="none" 
	d="
M306.950073,262.150452 
	C312.403412,262.150452 317.856750,262.150452 323.264160,262.150452 
	C324.638519,268.566742 324.638519,268.566742 314.394012,269.214630 
	C314.394012,272.558502 314.394012,275.937012 314.394012,279.896790 
	C317.370758,279.896790 320.423431,279.896790 323.377289,279.896790 
	C324.379303,286.305603 324.379303,286.305603 314.325409,287.366608 
	C314.325409,294.031036 314.325409,300.734894 314.325409,307.854919 
	C317.362793,307.854919 320.284088,307.854919 323.095673,307.854919 
	C324.760101,314.185242 324.217010,314.953644 318.385590,314.986084 
	C314.898987,315.005493 311.412201,314.985260 307.473572,314.471375 
	C306.997803,296.690063 306.973907,279.420258 306.950073,262.150452 
z"/>
<path fill="#895530" opacity="1.000000" stroke="none" 
	d="
M79.784004,305.819946 
	C81.216080,306.310516 82.648155,306.801086 84.579536,307.462677 
	C84.855240,304.705627 85.062042,302.637665 85.355003,299.708130 
	C87.859833,300.181488 91.638641,300.008362 92.109879,301.173248 
	C93.030441,303.448914 92.872543,306.854187 91.759872,309.096466 
	C90.090240,312.461182 87.237579,315.279053 82.787331,314.992432 
	C78.424416,314.711456 74.318520,313.990906 73.013000,308.027313 
	C73.033958,294.436646 73.016212,281.682434 72.998474,268.928223 
	C74.998611,263.915283 78.551788,261.499481 83.156746,262.021606 
	C87.570221,262.521973 92.429955,266.433716 92.832069,270.386475 
	C92.977234,271.813477 91.671898,274.656006 91.018150,274.659088 
	C89.039261,274.668427 86.763023,274.006561 85.156403,272.842163 
	C83.582695,271.701630 83.891670,267.320984 79.755974,271.016754 
	C79.206657,278.093170 78.989151,284.570435 79.058617,291.044647 
	C79.111488,295.971771 79.528824,300.894989 79.784004,305.819946 
z"/>
<path fill="#D69E71" opacity="1.000000" stroke="none" 
	d="
M224.068604,315.047943 
	C220.716751,315.343170 217.354095,315.886353 214.021393,315.741394 
	C213.282913,315.709259 212.281403,313.312103 212.030136,311.892578 
	C210.670181,304.209991 209.507950,296.492432 208.586609,288.376282 
	C209.927078,286.129181 211.078568,284.347839 211.954498,282.440002 
	C212.751007,280.705170 213.248016,278.832855 213.877045,277.021149 
	C214.353729,280.595490 214.830399,284.169830 215.654648,288.333099 
	C216.306702,291.909271 216.611176,294.896515 216.915649,297.883759 
	C217.300705,297.852142 217.685760,297.820496 218.070816,297.788879 
	C218.070816,285.912354 218.070816,274.035858 218.499710,262.092163 
	C220.500626,262.116821 222.072647,262.208618 224.134247,262.329041 
	C224.134247,271.583282 224.134247,280.321228 224.103882,289.522217 
	C224.071884,298.339478 224.070236,306.693726 224.068604,315.047943 
z"/>
<path fill="#CF9669" opacity="1.000000" stroke="none" 
	d="
M213.932465,276.601013 
	C213.248016,278.832855 212.751007,280.705170 211.954498,282.440002 
	C211.078568,284.347839 209.927078,286.129181 208.520935,287.984833 
	C207.764328,288.776703 207.059204,289.545715 207.050400,290.322601 
	C206.960571,298.260376 206.983932,306.199463 206.467682,314.598572 
	C204.168732,315.058960 202.377716,315.058960 200.427292,315.058960 
	C200.242340,313.826172 200.020676,313.033142 200.019531,312.239746 
	C199.996750,296.462708 199.977280,280.685577 200.039276,264.908752 
	C200.044205,263.654419 200.648819,262.402435 200.974747,261.149353 
	C204.509460,261.514252 208.044159,261.879181 211.687286,262.255280 
	C212.466797,266.973724 213.227341,271.577301 213.932465,276.601013 
z"/>
<path fill="#96613A" opacity="1.000000" stroke="none" 
	d="
M99.961754,269.988983 
	C101.810280,264.108276 104.292747,262.181580 110.607513,262.535553 
	C110.984108,265.072418 110.963211,267.108826 110.557480,269.097107 
	C109.131393,270.925018 107.403099,272.732056 107.206276,274.692810 
	C106.893509,277.808502 107.871666,281.030823 107.824112,284.200867 
	C107.723885,290.883057 107.168282,297.561401 107.206413,304.239014 
	C107.211365,305.105652 109.621719,305.958527 110.938438,307.258118 
	C111.357536,311.043091 111.243118,314.108093 107.016212,314.931244 
	C103.871887,312.890076 100.095085,311.396576 99.970673,305.915283 
	C99.985481,293.374329 99.973618,281.681641 99.961754,269.988983 
z"/>
<path fill="#B57E54" opacity="1.000000" stroke="none" 
	d="
M162.884094,287.047211 
	C162.884094,287.047211 162.507355,287.029236 161.990601,287.287537 
	C161.316071,294.506409 160.805847,301.483032 161.121262,308.422089 
	C161.341095,313.258667 159.620148,314.772003 155.102173,313.459808 
	C155.052933,296.101440 155.052933,279.204346 155.052933,261.613037 
	C157.791199,262.154480 159.826630,262.556915 161.862061,262.959381 
	C161.968582,265.141235 162.075104,267.323059 162.872696,269.920166 
	C165.958420,274.718689 165.580093,284.020966 162.884094,287.047211 
z"/>
<path fill="#BC855C" opacity="1.000000" stroke="none" 
	d="
M162.939514,287.444000 
	C165.580093,284.020966 165.958420,274.718689 163.209824,270.137451 
	C164.506836,261.888428 165.076263,261.512451 175.358215,262.350098 
	C173.162415,267.025055 171.051041,271.407074 169.063400,275.844543 
	C168.649994,276.767517 168.338745,277.989838 168.583145,278.915009 
	C171.270966,289.090179 174.165268,299.211609 176.765854,309.408264 
	C177.190414,311.072906 176.934052,314.351776 176.181641,314.621277 
	C173.261459,315.667389 170.244186,315.335663 169.202499,311.458496 
	C167.469772,305.009277 165.716965,298.565460 163.993271,292.113831 
	C163.615906,290.701385 163.325424,289.265747 162.939514,287.444000 
z"/>
<path fill="#D69D6F" opacity="1.000000" stroke="none" 
	d="
M239.992889,315.833832 
	C235.756271,315.278809 233.148010,312.862701 231.984818,307.972534 
	C231.985550,294.056793 231.970398,280.981689 231.955261,267.906616 
	C232.129272,263.221191 235.408524,261.822266 239.622528,261.530762 
	C240.018082,264.410797 240.039047,266.776215 240.060028,269.141663 
	C239.706024,270.195312 239.052063,271.246796 239.044434,272.302948 
	C238.967926,282.907654 238.889893,293.515594 239.136093,304.115112 
	C239.166214,305.412201 241.094421,306.665131 242.369141,308.200073 
	C241.727814,310.919037 240.860352,313.376434 239.992889,315.833832 
z"/>
<path fill="#D69E71" opacity="1.000000" stroke="none" 
	d="
M243.585724,411.580261 
	C238.057434,414.546112 232.545792,417.544159 226.972168,420.422211 
	C226.476471,420.678162 225.516724,420.279236 224.875000,419.971039 
	C218.130341,416.731659 211.406540,413.448761 204.533447,409.702087 
	C204.941177,406.759766 205.492447,404.293182 206.043732,401.826630 
	C210.662613,403.695496 215.296204,405.529022 219.895996,407.443726 
	C223.972397,409.140656 227.817322,409.720367 231.927734,407.108917 
	C234.752625,405.314178 238.101898,404.344879 241.600815,403.390564 
	C242.518463,406.376404 243.052094,408.978333 243.585724,411.580261 
z"/>
<path fill="#B57E54" opacity="1.000000" stroke="none" 
	d="
M286.994080,262.162476 
	C292.266632,261.954041 295.655670,264.728577 298.009918,269.965942 
	C298.001099,280.283203 297.948639,289.760101 298.044647,299.235474 
	C298.067413,301.483032 298.587891,303.725525 298.879395,305.970367 
	C297.244537,312.049316 293.908356,314.766418 287.394897,314.502625 
	C287.001617,312.058411 287.005310,310.112030 287.289062,308.097351 
	C288.018402,307.736084 288.467651,307.443115 289.216919,307.033508 
	C290.057465,306.260834 290.597992,305.604767 291.424133,304.647644 
	C291.793976,294.547821 291.898834,284.749146 291.916168,274.950317 
	C291.917328,274.294373 291.255585,273.637207 290.938904,272.994415 
	C290.975616,273.008209 290.942413,273.079315 291.102173,272.753540 
	C291.179657,272.200287 291.097382,271.972809 290.845764,271.476257 
	C289.449463,270.417175 288.222504,269.627167 286.997101,268.419678 
	C286.997101,266.055573 286.995605,264.109039 286.994080,262.162476 
z"/>
<path fill="#A56F47" opacity="1.000000" stroke="none" 
	d="
M127.986023,267.833008 
	C129.496460,263.427582 132.461548,261.329681 137.597473,262.515381 
	C138.006104,264.944794 138.008118,266.889252 137.686005,268.910034 
	C136.573563,269.343048 135.785233,269.699677 134.688202,270.334167 
	C134.243149,280.321594 134.052261,290.030945 134.014328,299.740875 
	C134.006302,301.795319 134.557632,303.851959 135.019653,306.231567 
	C136.128830,306.759216 137.069595,306.962891 138.007431,307.572327 
	C137.345551,310.281647 136.686615,312.585266 136.027664,314.888855 
	C131.640594,314.246399 128.868042,311.645142 127.480881,307.000366 
	C127.806717,293.511749 127.896370,280.672394 127.986023,267.833008 
z"/>
<path fill="#B98359" opacity="1.000000" stroke="none" 
	d="
M286.552216,262.097412 
	C286.995605,264.109039 286.997101,266.055573 286.752625,268.490906 
	C286.339264,269.008209 286.171906,269.036774 285.659973,269.304688 
	C285.221863,281.445496 285.081818,293.347076 285.121338,305.248047 
	C285.124573,306.222656 286.350952,307.193237 287.009003,308.165680 
	C287.005310,310.112030 287.001617,312.058411 286.996002,314.421326 
	C284.612427,314.884155 282.230743,314.930450 279.419800,314.452637 
	C278.981720,296.670776 278.972931,279.413025 278.964172,262.155304 
	C281.346222,262.114319 283.728302,262.073334 286.552216,262.097412 
z"/>
<path fill="#AC764D" opacity="1.000000" stroke="none" 
	d="
M138.010117,268.833679 
	C138.008118,266.889252 138.006104,264.944794 138.006668,262.584534 
	C143.127869,260.951569 144.700287,265.118073 146.983200,268.953186 
	C146.955612,282.226654 146.985931,294.665009 147.016251,307.103333 
	C146.132629,312.161682 142.723648,314.808746 136.427292,314.952087 
	C136.686615,312.585266 137.345551,310.281647 138.293472,307.435608 
	C139.105255,306.243378 139.628067,305.593597 140.408585,304.625732 
	C140.766907,297.489227 140.985016,290.669739 140.925217,283.852692 
	C140.887833,279.590424 140.431717,275.331787 140.037613,270.778870 
	C139.277863,269.935333 138.643982,269.384521 138.010117,268.833679 
z"/>
<path fill="#D69E71" opacity="1.000000" stroke="none" 
	d="
M207.030869,28.143921 
	C211.732758,26.403980 216.764069,25.233000 221.040024,22.757378 
	C224.985458,20.473110 228.024612,21.619339 231.447189,23.101774 
	C234.391922,24.377228 237.362122,25.593872 240.658798,27.445538 
	C240.984604,30.750265 240.972672,33.445976 240.960739,36.141685 
	C239.550995,35.772236 238.025650,35.633923 236.750229,34.995949 
	C228.243103,30.740635 220.179337,33.288349 212.119614,36.402370 
	C211.373550,36.690628 210.564606,36.816147 209.389832,36.532104 
	C208.340164,33.412632 207.685516,30.778275 207.030869,28.143921 
z"/>
<path fill="#9D6841" opacity="1.000000" stroke="none" 
	d="
M110.942307,269.145203 
	C110.963211,267.108826 110.984108,265.072418 111.008232,262.602753 
	C115.019371,261.653595 117.177711,263.971252 118.855423,267.997070 
	C118.986404,279.768127 118.958076,290.753052 119.045525,301.737030 
	C119.059418,303.481659 119.594330,305.222137 119.888359,306.964539 
	C118.240738,313.503876 116.156464,314.909698 107.439026,315.003784 
	C111.243118,314.108093 111.357536,311.043091 111.033203,307.033905 
	C111.317551,306.079681 111.601036,305.948090 112.315918,305.742432 
	C112.777473,294.405579 112.898933,283.300903 112.942665,272.195984 
	C112.945473,271.482300 112.347519,270.766296 111.780518,269.996948 
	C111.335442,269.676727 111.138878,269.410980 110.942307,269.145203 
z"/>
<path fill="#D0976B" opacity="1.000000" stroke="none" 
	d="
M240.407654,315.907288 
	C240.860352,313.376434 241.727814,310.919037 242.782639,308.150085 
	C243.287033,301.329865 243.701294,294.822235 243.766159,288.311066 
	C243.772430,287.681152 241.614288,287.029663 240.311615,286.305206 
	C239.629135,279.440979 239.625900,279.490265 246.558365,279.944305 
	C247.783142,280.024536 249.047470,279.500885 250.836487,279.575470 
	C251.608047,288.939240 251.836655,297.983582 252.065262,307.027954 
	C251.672989,313.170837 248.122894,315.997833 240.407654,315.907288 
z"/>
<path fill="#C48C61" opacity="1.000000" stroke="none" 
	d="
M185.965622,262.161682 
	C187.704895,262.114716 189.444168,262.067749 191.595184,262.544006 
	C192.006943,279.884186 192.006943,296.701080 192.006943,313.929016 
	C189.609756,313.929016 187.835556,313.929016 186.041885,313.465210 
	C186.003479,296.054810 185.984543,279.108246 185.965622,262.161682 
z"/>
<path fill="#A16E48" opacity="1.000000" stroke="none" 
	d="
M321.964478,367.883240 
	C332.798553,362.903717 343.628601,357.915466 354.468323,352.948212 
	C360.137115,350.350586 365.805176,347.749847 371.511139,345.235809 
	C373.310211,344.443115 375.231232,343.927277 377.096436,343.284729 
	C377.307068,343.791534 377.517700,344.298370 377.728333,344.805176 
	C360.118073,353.545502 342.507843,362.285858 324.175781,370.967957 
	C322.957489,369.900909 322.460968,368.892059 321.964478,367.883240 
z"/>
<path fill="#C18A5F" opacity="1.000000" stroke="none" 
	d="
M186.975174,36.135094 
	C187.137451,36.087158 187.299744,36.039230 187.722137,36.353020 
	C188.326385,39.086956 188.670517,41.459167 189.014633,43.831383 
	C188.843185,43.875980 188.671738,43.920574 188.122391,43.782204 
	C187.511414,43.785027 187.278336,43.970818 187.045273,44.156612 
	C179.971756,46.450741 172.898224,48.744865 165.374481,50.706131 
	C164.600693,48.545498 164.277115,46.717724 163.953552,44.889946 
	C171.068176,42.005230 178.182785,39.120514 185.752594,36.328239 
	C186.463593,36.325485 186.719376,36.230289 186.975174,36.135094 
z"/>
<path fill="#CF9669" opacity="1.000000" stroke="none" 
	d="
M189.379913,43.767311 
	C188.670517,41.459167 188.326385,39.086956 187.970596,36.301102 
	C194.073654,33.334816 200.188370,30.782164 206.666977,28.186716 
	C207.685516,30.778275 208.340164,33.412632 208.996750,36.466522 
	C202.580856,39.158459 196.163040,41.430851 189.379913,43.767311 
z"/>
<path fill="#D0976B" opacity="1.000000" stroke="none" 
	d="
M241.153046,36.462044 
	C240.972672,33.445976 240.984604,30.750265 240.994171,27.610714 
	C241.162338,27.123659 241.332886,27.080446 241.899719,27.281967 
	C242.536682,27.751751 242.819000,27.894409 243.142944,27.954681 
	C248.991623,30.048204 254.840317,32.141727 260.856079,34.979393 
	C261.343597,38.116245 261.664032,40.508961 261.984497,42.901676 
	C256.022339,41.135288 250.060181,39.369072 244.098175,37.602322 
	C243.180191,37.330288 242.262955,37.055775 241.153046,36.462044 
z"/>
<path fill="#CA9266" opacity="1.000000" stroke="none" 
	d="
M205.873993,401.504028 
	C205.492447,404.293182 204.941177,406.759766 204.209518,409.546997 
	C197.246872,406.637390 190.464600,403.407074 183.595642,399.745819 
	C184.008759,397.265808 184.508545,395.216736 185.008331,393.167664 
	C191.906982,395.838898 198.805618,398.510162 205.873993,401.504028 
z"/>
<path fill="#CF9669" opacity="1.000000" stroke="none" 
	d="
M241.041214,202.105011 
	C240.357422,204.045227 239.167862,205.964005 239.084488,207.929703 
	C238.832230,213.876770 239.809937,220.042511 234.126282,224.844818 
	C232.636139,224.264008 231.801331,223.578156 231.106018,222.564850 
	C232.172150,220.564011 233.753708,218.949097 233.909271,217.206879 
	C234.506149,210.522110 234.645554,203.796463 234.988403,196.757111 
	C234.686478,195.898972 234.351776,195.369781 234.010956,194.500092 
	C234.010391,193.479645 234.015976,192.799713 234.458603,192.089478 
	C236.940125,192.079147 238.984619,192.099106 241.018402,192.502350 
	C241.018860,195.958740 241.030045,199.031876 241.041214,202.105011 
z"/>
<path fill="#8B5833" opacity="1.000000" stroke="none" 
	d="
M173.391449,228.107086 
	C167.559433,224.644699 164.797714,219.570847 164.971893,212.745514 
	C165.141068,206.116470 165.043777,199.480637 165.553833,192.384491 
	C168.691666,191.995255 171.339203,192.069321 173.990784,192.482178 
	C173.993835,193.500198 173.992813,194.179398 173.617218,194.925125 
	C171.841583,195.368256 170.440521,195.744873 169.015060,196.581879 
	C168.985672,201.827789 169.056732,206.614899 168.956711,211.398438 
	C168.828552,217.528076 170.792908,222.589005 175.918198,226.474579 
	C175.012772,227.252762 174.202103,227.679916 173.391449,228.107086 
z"/>
<path fill="#DEC2AC" opacity="1.000000" stroke="none" 
	d="
M241.029099,192.119080 
	C238.984619,192.099106 236.940125,192.079147 233.989517,192.051682 
	C227.369797,192.074326 221.656204,192.104477 215.487457,192.101715 
	C211.344193,192.084930 207.656097,192.101089 203.515884,192.077484 
	C199.703690,192.057480 196.343613,192.077225 192.529022,192.053131 
	C188.701920,192.035187 185.329315,192.061111 181.991196,192.020386 
	C182.025696,191.953766 182.073013,191.811356 182.054749,191.447693 
	C182.029465,190.113113 182.022461,189.142181 182.468216,188.104523 
	C186.274857,188.080215 189.628738,188.122635 193.204437,188.487152 
	C198.965759,189.166260 204.505264,189.523270 210.489166,189.914688 
	C213.636414,189.927490 216.339218,189.905899 219.486496,189.925476 
	C222.626419,189.949219 225.321899,189.931793 228.472748,189.963287 
	C232.570999,190.034836 236.213867,190.057495 239.856720,190.080139 
	C244.960434,190.391357 250.062576,190.732407 255.168640,190.998657 
	C257.126740,191.100754 259.093719,191.032166 261.515869,191.275925 
	C261.975067,191.510498 261.966644,191.846863 261.600159,191.894699 
	C260.496674,191.998337 259.759674,192.054138 258.570129,192.051682 
	C255.086960,192.036423 252.056335,192.079437 248.582916,192.075256 
	C245.769775,192.058395 243.399445,192.088730 241.029099,192.119080 
z"/>
<path fill="#BC855C" opacity="1.000000" stroke="none" 
	d="
M300.162567,383.055237 
	C293.070251,386.710602 285.977936,390.365967 278.137146,393.945801 
	C276.911011,391.869141 276.433380,389.868042 275.955750,387.866943 
	C282.705597,384.900696 289.455444,381.934448 296.630493,379.284302 
	C298.091309,380.752014 299.126953,381.903625 300.162567,383.055237 
z"/>
<path fill="#B98359" opacity="1.000000" stroke="none" 
	d="
M279.986969,42.165367 
	C280.159821,42.124073 280.332703,42.082775 280.903076,42.286030 
	C281.541107,42.752815 281.821960,42.895756 282.143188,42.959396 
	C289.200806,45.577423 296.258423,48.195454 303.652832,51.360054 
	C303.644775,53.323479 303.299957,54.740334 302.955139,56.157188 
	C295.525787,53.846813 288.096466,51.536442 280.335205,48.635170 
	C279.997833,46.084637 279.992401,44.125000 279.986969,42.165367 
z"/>
<path fill="#A16E48" opacity="1.000000" stroke="none" 
	d="
M125.963364,373.101044 
	C116.583290,368.831665 107.180801,364.610596 97.830841,360.276215 
	C91.361847,357.277374 84.965347,354.122131 78.757622,350.109100 
	C79.951164,350.307404 81.233635,350.289062 82.324760,350.736908 
	C95.992462,356.346619 109.629471,362.031097 123.287575,367.664307 
	C124.028229,367.969788 124.885902,367.991577 125.862320,368.891296 
	C126.011475,370.791779 125.987419,371.946411 125.963364,373.101044 
z"/>
<path fill="#CF9669" opacity="1.000000" stroke="none" 
	d="
M243.625885,411.514832 
	C243.052094,408.978333 242.518463,406.376404 241.975540,403.325684 
	C247.050476,400.586700 252.134689,398.296478 257.609497,396.334747 
	C258.638947,399.024017 258.290619,402.142914 262.132263,402.044250 
	C257.039703,404.693542 251.947128,407.342865 246.137207,410.043152 
	C244.846817,410.496033 244.273788,410.897949 243.700745,411.299866 
	C243.700729,411.299835 243.666046,411.449432 243.625885,411.514832 
z"/>
<path fill="#C48C61" opacity="1.000000" stroke="none" 
	d="
M279.653290,42.001156 
	C279.992401,44.125000 279.997833,46.084637 279.999084,48.464516 
	C274.223511,46.990963 268.452148,45.097172 262.332642,43.052528 
	C261.664032,40.508961 261.343597,38.116245 261.038513,35.298988 
	C267.142456,37.195278 273.231018,39.516109 279.653290,42.001156 
z"/>
<path fill="#C48C61" opacity="1.000000" stroke="none" 
	d="
M262.503418,402.018127 
	C258.290619,402.142914 258.638947,399.024017 257.983337,396.266235 
	C263.716156,393.243500 269.465698,390.617737 275.585510,387.929443 
	C276.433380,389.868042 276.911011,391.869141 277.774536,393.963898 
	C273.065125,396.702393 267.969818,399.347229 262.503418,402.018127 
z"/>
<path fill="#B07A52" opacity="1.000000" stroke="none" 
	d="
M300.523743,383.039246 
	C299.126953,381.903625 298.091309,380.752014 297.012482,379.238617 
	C305.047882,375.240143 313.126434,371.603455 321.584717,367.925018 
	C322.460968,368.892059 322.957489,369.900909 323.815460,370.983093 
	C317.142548,374.716309 310.109924,378.379517 303.071106,382.030762 
	C302.361633,382.398773 301.614532,382.694183 300.523743,383.039246 
z"/>
<path fill="#A16E48" opacity="1.000000" stroke="none" 
	d="
M329.062256,60.867554 
	C335.783875,63.269932 342.523560,65.623222 349.222473,68.087318 
	C357.297974,71.057770 365.340668,74.117523 373.391174,77.155548 
	C373.999725,77.385216 374.557373,77.749840 375.138733,78.051704 
	C374.857544,78.547615 374.576355,79.043518 374.295197,79.539429 
	C359.121124,74.687210 343.947083,69.834999 328.392151,64.571564 
	C328.361603,63.062744 328.711914,61.965145 329.062256,60.867554 
z"/>
<path fill="#B57E54" opacity="1.000000" stroke="none" 
	d="
M163.572876,44.940552 
	C164.277115,46.717724 164.600693,48.545498 164.981216,50.768562 
	C157.972382,53.454647 150.906616,55.745449 143.426697,57.654850 
	C142.993256,55.811813 142.973984,54.350174 142.954712,52.888535 
	C149.700546,50.256077 156.446381,47.623615 163.572876,44.940552 
z"/>
<path fill="#A16E48" opacity="1.000000" stroke="none" 
	d="
M120.006035,65.921410 
	C106.222557,69.981956 92.925026,75.758072 78.877716,78.887207 
	C78.716072,78.362709 78.554428,77.838211 78.392792,77.313713 
	C91.367828,72.297150 104.342873,67.280586 117.764671,62.338951 
	C118.211426,62.413876 118.648315,62.486679 118.648315,62.486679 
	C118.648315,62.486679 118.970741,62.134819 118.970741,62.134819 
	C119.135651,62.091297 119.300568,62.047779 119.726799,62.355194 
	C119.994087,63.777889 120.000061,64.849648 120.006035,65.921410 
z"/>
<path fill="#935E39" opacity="1.000000" stroke="none" 
	d="
M239.890686,189.642899 
	C236.213867,190.057495 232.570999,190.034836 228.466660,189.619293 
	C227.995056,188.535980 227.984940,187.845551 228.385590,187.086670 
	C230.695831,186.779648 232.595306,186.541061 234.494797,186.302460 
	C234.444046,185.813766 234.393295,185.325089 234.342560,184.836395 
	C231.212570,184.836395 228.082596,184.836395 224.969513,184.497314 
	C225.029022,183.480362 225.071625,182.802505 225.534973,182.105652 
	C228.397369,182.086670 230.839050,182.086670 234.678024,182.086670 
	C232.862274,180.660385 232.376938,180.279160 231.732971,179.594604 
	C229.711380,178.592911 227.848404,177.894516 225.905151,176.857056 
	C225.572281,175.639481 225.319656,174.760971 225.067032,173.882462 
	C234.937347,174.701630 240.000336,179.923279 239.890686,189.642899 
z"/>
<path fill="#C18A5F" opacity="1.000000" stroke="none" 
	d="
M184.677155,392.991211 
	C184.508545,395.216736 184.008759,397.265808 183.276367,399.584137 
	C177.588547,397.295227 172.133301,394.737061 166.519638,391.670959 
	C166.589035,389.384460 166.816849,387.605896 167.044647,385.827301 
	C172.811768,388.156464 178.578873,390.485596 184.677155,392.991211 
z"/>
<path fill="#C48C61" opacity="1.000000" stroke="none" 
	d="
M198.788101,127.075363 
	C200.662537,131.369965 202.477493,135.691757 204.425674,139.952637 
	C207.185989,145.989761 206.173492,151.704010 202.931808,157.145218 
	C202.391113,158.052795 200.889038,158.387634 199.831223,158.987122 
	C199.490982,157.772598 199.143600,156.559967 198.820099,155.340988 
	C198.782486,155.199265 198.828735,154.986649 198.917297,154.867035 
	C204.184814,147.752869 200.361343,141.541656 197.018295,135.261047 
	C196.813828,134.876892 197.003830,134.282745 197.271210,133.160278 
	C197.950775,130.714630 198.369446,128.894989 198.788101,127.075363 
z"/>
<path fill="#AC764D" opacity="1.000000" stroke="none" 
	d="
M328.863434,60.558334 
	C328.711914,61.965145 328.361603,63.062744 328.000427,64.509735 
	C319.781464,62.163506 311.573364,59.467873 303.160156,56.464714 
	C303.299957,54.740334 303.644775,53.323479 303.984314,51.536171 
	C312.207550,54.193516 320.436096,57.221317 328.863434,60.558334 
z"/>
<path fill="#D0976B" opacity="1.000000" stroke="none" 
	d="
M240.412323,269.078491 
	C240.039047,266.776215 240.018082,264.410797 239.994980,261.605896 
	C247.496460,260.770050 250.146469,262.827118 252.528595,269.878296 
	C253.550705,272.903748 252.555710,274.419159 249.947723,274.853699 
	C247.451813,275.269562 244.362228,275.608643 244.049744,271.726929 
	C243.868073,269.470306 243.741653,267.656982 240.412323,269.078491 
z"/>
<path fill="#B07A52" opacity="1.000000" stroke="none" 
	d="
M126.144257,373.403809 
	C125.987419,371.946411 126.011475,370.791779 126.054237,369.204407 
	C133.949310,371.917603 141.825684,375.063568 149.748062,378.843018 
	C148.829132,380.712402 147.864166,381.948303 146.899200,383.184204 
	C140.041183,380.024994 133.183167,376.865784 126.144257,373.403809 
z"/>
<path fill="#AC764D" opacity="1.000000" stroke="none" 
	d="
M120.388283,65.928955 
	C120.000061,64.849648 119.994087,63.777889 119.977478,62.304081 
	C127.377182,58.933567 134.787521,55.965107 142.576279,52.942589 
	C142.973984,54.350174 142.993256,55.811813 143.024307,57.712135 
	C135.614227,60.746044 128.192383,63.341274 120.388283,65.928955 
z"/>
<path fill="#B98359" opacity="1.000000" stroke="none" 
	d="
M147.118622,383.471283 
	C147.864166,381.948303 148.829132,380.712402 149.929779,379.161255 
	C155.606491,380.961090 161.147507,383.076111 166.866577,385.509216 
	C166.816849,387.605896 166.589035,389.384460 166.199554,391.508484 
	C159.804626,389.155396 153.571335,386.456879 147.118622,383.471283 
z"/>
<path fill="#935E39" opacity="1.000000" stroke="none" 
	d="
M165.182037,190.094254 
	C163.779480,178.110382 167.358566,175.654251 176.651337,173.602127 
	C177.010452,175.025665 177.012497,176.106308 176.814285,177.476379 
	C174.690033,178.657730 172.766052,179.549652 170.842056,180.441589 
	C170.958191,180.800095 171.074310,181.158585 171.190430,181.517090 
	C172.299469,181.817245 173.408493,182.117386 175.625839,182.717484 
	C172.757080,184.135193 170.916580,185.044739 168.726791,186.126907 
	C170.864960,186.874237 172.456924,187.430664 173.875839,188.338623 
	C170.862534,189.158188 168.022293,189.626221 165.182037,190.094254 
z"/>
<path fill="#D8A57C" opacity="1.000000" stroke="none" 
	d="
M194.865021,169.956161 
	C196.087509,164.606537 196.791763,164.420547 204.609283,164.891159 
	C208.569214,165.129547 207.867401,167.743835 207.820831,170.744446 
	C207.405228,172.295853 207.223557,173.205307 206.907272,174.367874 
	C203.191345,174.358597 199.610031,174.096176 196.023712,173.472839 
	C195.634140,172.059982 195.249588,171.008072 194.865021,169.956161 
z"/>
<path fill="#CA9266" opacity="1.000000" stroke="none" 
	d="
M189.989914,148.994873 
	C189.642426,151.331467 189.599976,153.371750 188.858917,155.115051 
	C188.153244,156.775101 186.718307,158.125153 185.603973,159.611481 
	C184.943542,159.285141 184.283112,158.958801 183.622681,158.632462 
	C184.294006,156.330200 185.494736,154.030167 185.504410,151.725143 
	C185.516861,148.757721 184.608200,145.779724 184.028870,142.819489 
	C183.755127,141.420761 183.108887,140.068512 183.006607,138.667801 
	C182.732086,134.907837 184.048996,132.485916 187.912277,133.020844 
	C188.619095,138.310883 189.304382,143.439819 189.989914,148.994873 
z"/>
<path fill="#8B5833" opacity="1.000000" stroke="none" 
	d="
M287.010651,191.975739 
	C290.643860,195.151199 288.706726,199.128815 288.426514,202.811676 
	C288.390106,203.290100 286.866943,204.038803 286.056885,204.008545 
	C282.574921,203.878555 279.102081,203.504395 275.188965,202.785309 
	C274.890015,201.553848 275.027985,200.756256 275.554993,199.963043 
	C276.982605,199.954575 278.021088,199.941772 279.491547,199.924973 
	C281.483612,199.920975 283.043732,199.920975 284.930359,199.920975 
	C284.815857,198.029572 284.733521,196.669876 284.645294,195.212662 
	C282.198181,195.080719 280.104584,194.967834 278.008331,194.515472 
	C278.009460,193.497986 278.013214,192.819992 278.463379,192.087357 
	C281.610077,192.013733 284.310364,191.994736 287.010651,191.975739 
z"/>
<path fill="#D8A57C" opacity="1.000000" stroke="none" 
	d="
M230.966507,222.892319 
	C231.801331,223.578156 232.636139,224.264008 233.810593,224.996399 
	C231.043198,230.673553 221.549789,233.719223 215.118484,232.634079 
	C213.378082,232.340408 211.612503,232.195816 209.433151,231.708664 
	C209.007812,231.434525 209.004883,231.022827 209.448837,231.012390 
	C212.521774,229.812439 216.892838,233.640869 218.452072,228.115448 
	C223.868378,228.603333 227.498016,225.936615 230.966507,222.892319 
z"/>
<path fill="#D0976B" opacity="1.000000" stroke="none" 
	d="
M213.006485,141.268890 
	C213.482864,139.707626 213.949707,138.546204 214.435776,137.336960 
	C218.910385,144.068069 221.209579,150.932816 215.712463,158.287262 
	C212.571289,157.329300 212.179733,157.099396 213.443008,154.196579 
	C215.343033,149.830597 214.330475,145.797577 213.006485,141.268890 
z"/>
<path fill="#C18A5F" opacity="1.000000" stroke="none" 
	d="
M241.018402,192.502335 
	C243.399445,192.088730 245.769775,192.058395 248.574097,192.413742 
	C249.012512,193.479797 249.016968,194.160156 248.668732,194.907028 
	C246.140411,195.127609 245.082458,195.834381 246.983032,198.245758 
	C247.738846,198.758240 248.361679,198.963257 248.989655,199.501373 
	C248.990952,200.500305 248.987091,201.166168 248.983231,201.832031 
	C246.535400,201.950455 244.087585,202.068893 241.340485,202.146164 
	C241.030045,199.031876 241.018860,195.958740 241.018402,192.502335 
z"/>
<path fill="#D7B193" opacity="1.000000" stroke="none" 
	d="
M185.578888,262.287109 
	C185.984543,279.108246 186.003479,296.054810 185.816223,313.494263 
	C185.610031,313.987152 185.156830,314.020111 185.156830,314.020111 
	C185.168610,296.817596 185.180389,279.615082 185.578888,262.287109 
z"/>
<path fill="#F8EFE8" opacity="1.000000" stroke="none" 
	d="
M200.536713,261.083740 
	C200.648819,262.402435 200.044205,263.654419 200.039276,264.908752 
	C199.977280,280.685577 199.996750,296.462708 200.019531,312.239746 
	C200.020676,313.033142 200.242340,313.826172 200.427292,315.058960 
	C202.377716,315.058960 204.168732,315.058960 206.398071,315.067383 
	C204.409424,315.499512 201.982468,315.923187 198.998306,316.444153 
	C198.998306,305.803558 198.998230,295.742584 198.998322,285.681641 
	C198.998383,278.725189 198.944275,271.767914 199.048431,264.813019 
	C199.067459,263.543091 199.732056,262.282837 200.536713,261.083740 
z"/>
<path fill="#EDDFD5" opacity="1.000000" stroke="none" 
	d="
M161.921967,262.529572 
	C159.826630,262.556915 157.791199,262.154480 155.052933,261.613037 
	C155.052933,279.204346 155.052933,296.101440 155.046066,313.690002 
	C155.039200,314.381500 154.971878,314.850372 154.971878,314.850372 
	C154.659943,314.564178 154.075714,314.278625 154.075012,313.991669 
	C154.031647,296.442474 154.036087,278.893219 154.036087,260.508087 
	C156.965652,261.094910 159.473755,261.597351 161.921967,262.529572 
z"/>
<path fill="#A16E48" opacity="1.000000" stroke="none" 
	d="
M275.165924,199.958679 
	C275.027985,200.756256 274.890015,201.553848 274.860321,202.625061 
	C270.137573,202.866440 265.306549,202.834183 260.231720,202.089584 
	C259.985321,200.641830 259.982727,199.906418 260.299866,199.011612 
	C265.468384,199.221024 270.317169,199.589859 275.165924,199.958679 
z"/>
<path fill="#E9D3C2" opacity="1.000000" stroke="none" 
	d="
M185.277313,314.428619 
	C185.156830,314.020111 185.610031,313.987152 185.835693,313.958069 
	C187.835556,313.929016 189.609756,313.929016 192.006943,313.929016 
	C192.006943,296.701080 192.006943,279.884186 192.025970,262.608887 
	C192.348007,262.452576 192.915497,262.754028 192.916245,263.056824 
	C192.958740,280.243713 192.954071,297.430664 192.954071,314.837128 
	C190.253693,314.837128 187.825760,314.837128 185.277313,314.428619 
z"/>
<path fill="#CAA284" opacity="1.000000" stroke="none" 
	d="
M278.565796,262.314240 
	C278.972931,279.413025 278.981720,296.670776 278.977417,314.386780 
	C278.608734,310.420471 277.970795,305.997192 277.950714,301.571075 
	C277.891602,288.539032 278.077484,275.505890 278.565796,262.314240 
z"/>
<path fill="#CDAB91" opacity="1.000000" stroke="none" 
	d="
M306.553650,262.314636 
	C306.973907,279.420258 306.997803,296.690063 307.008789,314.419952 
	C306.664612,314.260376 306.044220,313.640778 306.044189,313.021088 
	C306.043182,296.173676 306.105560,279.326263 306.553650,262.314636 
z"/>
<path fill="#CDB29E" opacity="1.000000" stroke="none" 
	d="
M165.116608,190.392975 
	C168.022293,189.626221 170.862534,189.158188 174.315826,188.347321 
	C177.291077,188.060074 179.653259,188.115677 182.015457,188.171265 
	C182.022461,189.142181 182.029465,190.113113 181.609543,191.524445 
	C178.783981,192.024368 176.385361,192.083878 173.986725,192.143372 
	C171.339203,192.069321 168.691666,191.995255 165.605865,191.912445 
	C165.128769,191.499710 165.089981,191.095703 165.116608,190.392975 
z"/>
<path fill="#CAA284" opacity="1.000000" stroke="none" 
	d="
M127.607254,268.045837 
	C127.896370,280.672394 127.806717,293.511749 127.430046,306.648682 
	C127.171516,294.050415 127.200005,281.154541 127.607254,268.045837 
z"/>
<path fill="#D7B193" opacity="1.000000" stroke="none" 
	d="
M218.070816,262.159363 
	C218.070816,274.035858 218.070816,285.912354 218.070816,297.788879 
	C217.685760,297.820496 217.300705,297.852142 216.915649,297.883759 
	C216.611176,294.896515 216.306702,291.909271 216.018723,288.545593 
	C216.349426,279.753632 216.663620,271.338104 217.286255,262.501190 
	C217.594696,262.079773 218.070816,262.159363 218.070816,262.159363 
z"/>
<path fill="#B57E54" opacity="1.000000" stroke="none" 
	d="
M198.857010,126.672333 
	C198.369446,128.894989 197.950775,130.714630 197.258728,132.769867 
	C196.668076,128.656387 196.161301,124.306381 196.181686,119.958847 
	C196.186157,119.005211 198.066574,118.060379 199.083069,117.111496 
	C199.397949,118.275871 200.023956,119.458313 199.957657,120.600563 
	C199.847183,122.503693 199.293182,124.381081 198.857010,126.672333 
z"/>
<path fill="#9D6841" opacity="1.000000" stroke="none" 
	d="
M173.500519,228.465027 
	C174.202103,227.679916 175.012772,227.252762 176.292862,226.556946 
	C180.848404,226.913208 184.934540,227.538132 189.013794,228.515289 
	C189.002686,229.571823 188.998428,230.276138 188.537338,231.001846 
	C185.005600,231.017700 181.930695,231.012146 178.855804,231.006592 
	C177.107071,230.278717 175.358337,229.550842 173.500519,228.465027 
z"/>
<path fill="#B57E54" opacity="1.000000" stroke="none" 
	d="
M224.842896,173.568970 
	C225.319656,174.760971 225.572281,175.639481 225.493652,176.796356 
	C221.435974,176.330750 217.709549,175.586761 213.989960,174.468964 
	C213.997147,173.098282 213.997498,172.101395 213.997849,171.104507 
	C217.538147,171.821503 221.078445,172.538483 224.842896,173.568970 
z"/>
<path fill="#C48C61" opacity="1.000000" stroke="none" 
	d="
M194.441132,169.970886 
	C195.249588,171.008072 195.634140,172.059982 195.614807,173.564240 
	C192.145706,174.291672 189.080505,174.566788 186.145065,174.570312 
	C185.530716,173.244171 184.786621,172.189621 184.042511,171.135056 
	C187.367416,170.751907 190.692337,170.368759 194.441132,169.970886 
z"/>
<path fill="#F8EFE8" opacity="1.000000" stroke="none" 
	d="
M231.563873,268.111877 
	C231.970398,280.981689 231.985550,294.056793 231.974670,307.604065 
	C231.634476,307.410828 231.046661,306.745422 231.046692,306.080017 
	C231.047150,293.492371 231.117050,280.904755 231.563873,268.111877 
z"/>
<path fill="#B57E54" opacity="1.000000" stroke="none" 
	d="
M119.950607,306.501556 
	C119.594330,305.222137 119.059418,303.481659 119.045525,301.737030 
	C118.958076,290.753052 118.986404,279.768127 119.010147,268.303650 
	C119.359825,269.324280 119.938683,270.822845 119.949936,272.325592 
	C120.034004,283.562775 120.005844,294.800812 119.950607,306.501556 
z"/>
<path fill="#CDAB91" opacity="1.000000" stroke="none" 
	d="
M72.592430,269.109985 
	C73.016212,281.682434 73.033958,294.436646 73.029663,307.669495 
	C72.662804,307.485718 72.017159,306.823059 72.017708,306.160919 
	C72.028008,293.871155 72.115311,281.581451 72.592430,269.109985 
z"/>
<path fill="#B07A52" opacity="1.000000" stroke="none" 
	d="
M183.674713,171.200592 
	C184.786621,172.189621 185.530716,173.244171 185.793198,174.747742 
	C182.545898,175.860138 179.780212,176.523544 177.014542,177.186951 
	C177.012497,176.106308 177.010452,175.025665 177.017609,173.539963 
	C179.120163,172.511978 181.213531,171.889053 183.674713,171.200592 
z"/>
<path fill="#E9D3C2" opacity="1.000000" stroke="none" 
	d="
M147.417282,306.909424 
	C146.985931,294.665009 146.955612,282.226654 146.963837,269.309631 
	C147.340973,269.488129 147.974716,270.145447 147.974350,270.802460 
	C147.967743,282.773499 147.884918,294.744507 147.417282,306.909424 
z"/>
<path fill="#CAA284" opacity="1.000000" stroke="none" 
	d="
M179.056671,231.372772 
	C181.930695,231.012146 185.005600,231.017700 188.999908,231.028870 
	C193.934265,231.009033 197.949173,230.983582 202.403839,230.977386 
	C204.897354,231.005371 206.951111,231.014099 209.004883,231.022827 
	C209.004883,231.022827 209.007812,231.434525 209.011230,231.640350 
	C199.095612,231.810455 189.176575,231.774719 179.056671,231.372772 
z"/>
<path fill="#C18A5F" opacity="1.000000" stroke="none" 
	d="
M298.947998,305.507965 
	C298.587891,303.725525 298.067413,301.483032 298.044647,299.235474 
	C297.948639,289.760101 298.001099,280.283203 298.023132,270.328674 
	C298.362579,271.347198 298.938843,272.841675 298.951691,274.340973 
	C299.039520,284.575256 299.008942,294.810577 298.947998,305.507965 
z"/>
<path fill="#F8EFE8" opacity="1.000000" stroke="none" 
	d="
M99.559898,270.166687 
	C99.973618,281.681641 99.985481,293.374329 99.978195,305.535950 
	C99.641891,305.356262 99.048996,304.707764 99.048599,304.058960 
	C99.041809,292.820770 99.107887,281.582581 99.559898,270.166687 
z"/>
<path fill="#E9D3C2" opacity="1.000000" stroke="none" 
	d="
M218.499710,262.092163 
	C218.070816,262.159363 217.594696,262.079773 217.356873,262.039001 
	C219.522537,261.524750 221.926041,261.051270 225.014023,260.442932 
	C225.014023,270.070343 225.014023,279.084991 224.750122,288.565521 
	C224.486237,289.031403 224.134247,289.059174 224.134247,289.059174 
	C224.134247,280.321228 224.134247,271.583282 224.134247,262.329041 
	C222.072647,262.208618 220.500626,262.116821 218.499710,262.092163 
z"/>
<path fill="#CAA284" opacity="1.000000" stroke="none" 
	d="
M79.857544,305.368317 
	C79.528824,300.894989 79.111488,295.971771 79.058617,291.044647 
	C78.989151,284.570435 79.206657,278.093170 79.594025,271.321075 
	C79.901894,282.322174 79.916489,293.619446 79.857544,305.368317 
z"/>
<path fill="#CAA284" opacity="1.000000" stroke="none" 
	d="
M155.423431,314.907684 
	C154.971878,314.850372 155.039200,314.381500 155.095306,314.151306 
	C159.620148,314.772003 161.341095,313.258667 161.121262,308.422089 
	C160.805847,301.483032 161.316071,294.506409 161.802094,287.281586 
	C162.130371,296.205017 162.130371,305.392700 162.130371,314.964996 
	C159.721176,314.964996 157.798080,314.964996 155.423431,314.907684 
z"/>
<path fill="#B57E54" opacity="1.000000" stroke="none" 
	d="
M259.980133,199.171021 
	C259.982727,199.906418 259.985321,200.641830 259.977966,201.745361 
	C256.608063,202.069992 253.248123,202.026489 249.435699,201.907501 
	C248.987091,201.166168 248.990952,200.500305 249.443329,199.426941 
	C253.254593,199.069962 256.617371,199.120483 259.980133,199.171021 
z"/>
<path fill="#F8EFE8" opacity="1.000000" stroke="none" 
	d="
M252.456146,306.832397 
	C251.836655,297.983582 251.608047,288.939240 251.205231,279.521851 
	C251.688004,280.070129 252.903442,280.984741 252.914566,281.913757 
	C253.013275,290.153320 252.898666,298.395447 252.456146,306.832397 
z"/>
<path fill="#C48C61" opacity="1.000000" stroke="none" 
	d="
M213.581299,171.058395 
	C213.997498,172.101395 213.997147,173.098282 213.589401,174.529877 
	C211.135300,174.681305 209.088608,174.398026 207.041901,174.114746 
	C207.223557,173.205307 207.405228,172.295853 207.866867,171.167648 
	C209.819473,170.970016 211.492126,170.991150 213.581299,171.058395 
z"/>
<path fill="#F8EFE8" opacity="1.000000" stroke="none" 
	d="
M224.103882,289.522217 
	C224.134247,289.059174 224.486237,289.031403 224.662750,289.028595 
	C224.841736,297.566559 224.844223,306.107361 224.457657,314.848022 
	C224.070236,306.693726 224.071884,298.339478 224.103882,289.522217 
z"/>
<path fill="#CDB29E" opacity="1.000000" stroke="none" 
	d="
M286.799225,191.596252 
	C284.310364,191.994736 281.610077,192.013733 278.022217,192.025833 
	C274.766907,192.062271 272.399170,192.105606 269.587097,192.091736 
	C266.750732,191.971970 264.358673,191.909424 261.966644,191.846863 
	C261.966644,191.846863 261.975067,191.510498 261.979187,191.342316 
	C270.184814,191.188339 278.386292,191.202545 286.799225,191.596252 
z"/>
<path fill="#D69E71" opacity="1.000000" stroke="none" 
	d="
M244.055847,411.188293 
	C244.273788,410.897949 244.846817,410.496033 245.773300,410.068268 
	C245.554825,410.387207 244.982895,410.731964 244.055847,411.188293 
z"/>
<path fill="#AC764D" opacity="1.000000" stroke="none" 
	d="
M118.736031,62.081161 
	C118.970741,62.134819 118.648315,62.486679 118.648315,62.486679 
	C118.648315,62.486679 118.211426,62.413876 118.121910,62.275421 
	C118.032394,62.136967 118.501320,62.027504 118.736031,62.081161 
z"/>
<path fill="#CF9669" opacity="1.000000" stroke="none" 
	d="
M187.281006,44.099171 
	C187.278336,43.970818 187.511414,43.785027 187.859879,43.741013 
	C187.975266,43.882793 187.516754,44.041733 187.281006,44.099171 
z"/>
<path fill="#C48C61" opacity="1.000000" stroke="none" 
	d="
M282.047119,42.711948 
	C281.821960,42.895756 281.541107,42.752815 281.165375,42.333862 
	C281.337158,42.246262 281.644104,42.355377 282.047119,42.711948 
z"/>
<path fill="#CF9669" opacity="1.000000" stroke="none" 
	d="
M186.738464,36.077076 
	C186.719376,36.230289 186.463593,36.325485 186.118256,36.278778 
	C186.028717,36.136868 186.501740,36.019058 186.738464,36.077076 
z"/>
<path fill="#D69E71" opacity="1.000000" stroke="none" 
	d="
M243.052200,27.699200 
	C242.819000,27.894409 242.536682,27.751751 242.159271,27.329720 
	C242.335510,27.236399 242.648483,27.340059 243.052200,27.699200 
z"/>
<path fill="#000000" opacity="1.000000" stroke="none" 
	d="
M110.557480,269.097107 
	C111.138878,269.410980 111.335442,269.676727 111.781479,270.460144 
	C112.006592,282.643402 111.982239,294.308990 111.957878,305.974579 
	C111.601036,305.948090 111.317551,306.079681 111.012650,306.593567 
	C109.621719,305.958527 107.211365,305.105652 107.206413,304.239014 
	C107.168282,297.561401 107.723885,290.883057 107.824112,284.200867 
	C107.871666,281.030823 106.893509,277.808502 107.206276,274.692810 
	C107.403099,272.732056 109.131393,270.925018 110.557480,269.097107 
z"/>
<path fill="#000000" opacity="1.000000" stroke="none" 
	d="
M286.004578,269.065308 
	C286.171906,269.036774 286.339264,269.008209 286.751099,268.908447 
	C288.222504,269.627167 289.449463,270.417175 290.580444,271.602539 
	C290.637115,272.358368 290.789764,272.718842 290.942413,273.079315 
	C290.942413,273.079315 290.975616,273.008209 290.989044,273.463287 
	C291.047821,284.261810 291.093140,294.605286 291.138489,304.948730 
	C290.597992,305.604767 290.057465,306.260834 288.781006,306.967529 
	C287.359375,305.730377 286.095917,304.450287 286.078674,303.153625 
	C285.927673,291.792542 285.999084,280.428467 286.004578,269.065308 
z"/>
<path fill="#EDDFD5" opacity="1.000000" stroke="none" 
	d="
M285.659973,269.304688 
	C285.999084,280.428467 285.927673,291.792542 286.078674,303.153625 
	C286.095917,304.450287 287.359375,305.730377 288.480957,307.084167 
	C288.467651,307.443115 288.018402,307.736084 287.289062,308.097351 
	C286.350952,307.193237 285.124573,306.222656 285.121338,305.248047 
	C285.081818,293.347076 285.221863,281.445496 285.659973,269.304688 
z"/>
<path fill="#F8EFE8" opacity="1.000000" stroke="none" 
	d="
M291.424133,304.647644 
	C291.093140,294.605286 291.047821,284.261810 290.952332,273.449493 
	C291.255585,273.637207 291.917328,274.294373 291.916168,274.950317 
	C291.898834,284.749146 291.793976,294.547821 291.424133,304.647644 
z"/>
<path fill="#F8EFE8" opacity="1.000000" stroke="none" 
	d="
M291.102173,272.753540 
	C290.789764,272.718842 290.637115,272.358368 290.749817,271.871613 
	C291.097382,271.972809 291.179657,272.200287 291.102173,272.753540 
z"/>
<path fill="#000000" opacity="1.000000" stroke="none" 
	d="
M140.150879,304.943787 
	C139.628067,305.593597 139.105255,306.243378 138.296417,307.029877 
	C137.069595,306.962891 136.128830,306.759216 135.085861,305.772827 
	C134.988068,293.345551 134.992493,281.700928 134.996902,270.056305 
	C135.785233,269.699677 136.573563,269.343048 137.686005,268.910034 
	C138.643982,269.384521 139.277863,269.935333 139.979858,271.240112 
	C140.082275,282.977264 140.116577,293.960541 140.150879,304.943787 
z"/>
<path fill="#CDB29E" opacity="1.000000" stroke="none" 
	d="
M134.688202,270.334167 
	C134.992493,281.700928 134.988068,293.345551 134.917450,305.448883 
	C134.557632,303.851959 134.006302,301.795319 134.014328,299.740875 
	C134.052261,290.030945 134.243149,280.321594 134.688202,270.334167 
z"/>
<path fill="#CAA284" opacity="1.000000" stroke="none" 
	d="
M140.408585,304.625732 
	C140.116577,293.960541 140.082275,282.977264 140.105743,271.532776 
	C140.431717,275.331787 140.887833,279.590424 140.925217,283.852692 
	C140.985016,290.669739 140.766907,297.489227 140.408585,304.625732 
z"/>
<path fill="#EDDFD5" opacity="1.000000" stroke="none" 
	d="
M112.315918,305.742432 
	C111.982239,294.308990 112.006592,282.643402 112.029991,270.514587 
	C112.347519,270.766296 112.945473,271.482300 112.942665,272.195984 
	C112.898933,283.300903 112.777473,294.405579 112.315918,305.742432 
z"/>
<path fill="#000000" opacity="1.000000" stroke="none" 
	d="
M189.020660,228.163055 
	C184.934540,227.538132 180.848404,226.913208 176.387619,226.205917 
	C170.792908,222.589005 168.828552,217.528076 168.956711,211.398438 
	C169.056732,206.614899 168.985672,201.827789 169.478333,196.515869 
	C189.916977,195.998093 209.868073,195.980621 229.818756,196.061676 
	C231.532410,196.068634 233.243393,196.729156 234.955627,197.086075 
	C234.645554,203.796463 234.506149,210.522110 233.909271,217.206879 
	C233.753708,218.949097 232.172150,220.564011 231.106018,222.564850 
	C227.498016,225.936615 223.868378,228.603333 217.988998,228.031570 
	C212.084610,228.060532 207.058350,228.114288 201.573334,228.086914 
	C197.083282,228.058212 193.051971,228.110641 189.020660,228.163055 
M229.952393,202.878967 
	C229.952393,207.746567 229.952393,212.614166 229.952393,217.481766 
	C230.419281,217.452637 230.886169,217.423508 231.353058,217.394379 
	C231.353058,211.694580 231.353058,205.994797 231.353058,200.295013 
	C231.044174,200.279785 230.735275,200.264542 230.426392,200.249313 
	C230.273148,200.825958 230.119888,201.402588 229.952393,202.878967 
z"/>
<path fill="#EDDFD5" opacity="1.000000" stroke="none" 
	d="
M234.988403,196.757111 
	C233.243393,196.729156 231.532410,196.068634 229.818756,196.061676 
	C209.868073,195.980621 189.916977,195.998093 169.502747,196.055481 
	C170.440521,195.744873 171.841583,195.368256 174.056351,194.997452 
	C177.239792,194.955566 179.609528,194.907852 182.433029,194.935394 
	C186.251831,194.957306 189.616837,194.903976 193.435959,194.919617 
	C197.250290,194.938568 200.610504,194.888550 204.428741,194.903320 
	C208.576447,194.922195 212.266129,194.876297 216.422668,194.893463 
	C222.598709,194.917892 228.307892,194.879242 234.017075,194.840591 
	C234.351776,195.369781 234.686478,195.898972 234.988403,196.757111 
z"/>
<path fill="#D69D6F" opacity="1.000000" stroke="none" 
	d="
M234.010956,194.500092 
	C228.307892,194.879242 222.598709,194.917892 216.436554,194.556366 
	C215.969940,193.482346 215.956284,192.808487 215.942612,192.134628 
	C221.656204,192.104477 227.369797,192.074326 233.552475,192.081970 
	C234.015976,192.799713 234.010391,193.479645 234.010956,194.500092 
z"/>
<path fill="#935E39" opacity="1.000000" stroke="none" 
	d="
M181.979248,194.860153 
	C179.609528,194.907852 177.239792,194.955566 174.430939,194.930939 
	C173.992813,194.179398 173.993835,193.500198 173.990784,192.482178 
	C176.385361,192.083878 178.783981,192.024368 181.627808,191.888107 
	C182.073013,191.811356 182.025696,191.953766 182.007339,192.366119 
	C181.985733,193.472366 181.982483,194.166260 181.979248,194.860153 
z"/>
<path fill="#000000" opacity="1.000000" stroke="none" 
	d="
M206.907272,174.367889 
	C209.088608,174.398026 211.135300,174.681305 213.582565,174.903687 
	C217.709549,175.586761 221.435974,176.330750 225.573914,177.135437 
	C227.848404,177.894516 229.711380,178.592911 231.383743,179.779755 
	C229.126862,180.566513 227.060593,180.864807 224.527237,181.111969 
	C210.423965,181.060837 196.787781,181.060837 182.138916,181.060837 
	C184.949356,186.193359 188.736023,184.781052 192.478760,184.909607 
	C201.256454,184.926361 209.571259,184.874313 218.325745,184.892334 
	C220.827805,184.920395 222.890213,184.878403 224.952621,184.836395 
	C228.082596,184.836395 231.212570,184.836395 234.342560,184.836395 
	C234.393295,185.325089 234.444046,185.813766 234.494797,186.302460 
	C232.595306,186.541061 230.695831,186.779648 227.940704,187.028564 
	C224.380264,187.078476 221.675491,187.118057 218.525299,187.101807 
	C215.379227,187.084061 212.678528,187.122162 209.516266,187.098831 
	C203.697327,187.413284 198.339966,187.789169 192.982620,188.165039 
	C189.628738,188.122635 186.274857,188.080215 182.468216,188.104523 
	C179.653259,188.115677 177.291077,188.060074 174.488892,187.995789 
	C172.456924,187.430664 170.864960,186.874237 168.726791,186.126907 
	C170.916580,185.044739 172.757080,184.135193 175.625839,182.717484 
	C173.408493,182.117386 172.299469,181.817245 171.190430,181.517090 
	C171.074310,181.158585 170.958191,180.800095 170.842056,180.441589 
	C172.766052,179.549652 174.690033,178.657730 176.814285,177.476379 
	C179.780212,176.523544 182.545898,175.860138 185.663437,175.019318 
	C189.080505,174.566788 192.145706,174.291672 195.619812,173.925156 
	C199.610031,174.096176 203.191345,174.358597 206.907272,174.367889 
z"/>
<path fill="#D0976B" opacity="1.000000" stroke="none" 
	d="
M193.204437,188.487152 
	C198.339966,187.789169 203.697327,187.413284 209.524689,187.440216 
	C210.011398,188.522125 210.028076,189.201202 210.044739,189.880295 
	C204.505264,189.523270 198.965759,189.166260 193.204437,188.487152 
z"/>
<path fill="#C18A5F" opacity="1.000000" stroke="none" 
	d="
M215.487457,192.101715 
	C215.956284,192.808487 215.969940,193.482346 215.969696,194.493301 
	C212.266129,194.876297 208.576447,194.922195 204.438416,194.563232 
	C203.982712,193.477997 203.975342,192.797607 203.967987,192.117233 
	C207.656097,192.101089 211.344193,192.084930 215.487457,192.101715 
z"/>
<path fill="#A56F47" opacity="1.000000" stroke="none" 
	d="
M182.433014,194.935394 
	C181.982483,194.166260 181.985733,193.472366 181.972839,192.432739 
	C185.329315,192.061111 188.701920,192.035187 192.535217,192.396271 
	C192.991211,193.472397 192.986542,194.161514 192.981873,194.850632 
	C189.616837,194.903976 186.251831,194.957306 182.433014,194.935394 
z"/>
<path fill="#B07A52" opacity="1.000000" stroke="none" 
	d="
M193.435974,194.919617 
	C192.986542,194.161514 192.991211,193.472397 192.989700,192.440125 
	C196.343613,192.077225 199.703690,192.057480 203.515884,192.077484 
	C203.975342,192.797607 203.982712,193.477997 203.980408,194.498444 
	C200.610504,194.888550 197.250290,194.938568 193.435974,194.919617 
z"/>
<path fill="#A56F47" opacity="1.000000" stroke="none" 
	d="
M261.600159,191.894699 
	C264.358673,191.909424 266.750732,191.971970 269.576782,192.428879 
	C270.013184,193.500183 270.015533,194.177124 269.564209,194.928131 
	C265.747528,194.950317 262.384521,194.898468 259.015015,194.504059 
	C259.013275,193.477661 259.018005,192.793793 259.022705,192.109940 
	C259.759674,192.054138 260.496674,191.998337 261.600159,191.894699 
z"/>
<path fill="#B57E54" opacity="1.000000" stroke="none" 
	d="
M258.570160,192.051682 
	C259.018005,192.793793 259.013275,193.477661 258.564270,194.574295 
	C255.087158,194.938232 252.054276,194.889374 249.021408,194.840515 
	C249.016968,194.160156 249.012512,193.479797 249.016891,192.460938 
	C252.056335,192.079437 255.086960,192.036423 258.570160,192.051682 
z"/>
<path fill="#A56F47" opacity="1.000000" stroke="none" 
	d="
M218.970703,187.157639 
	C221.675491,187.118057 224.380264,187.078476 227.529938,187.097000 
	C227.984940,187.845551 227.995056,188.535980 228.011261,189.570404 
	C225.321899,189.931793 222.626419,189.949219 219.472382,189.586517 
	C218.999435,188.523499 218.985062,187.840561 218.970703,187.157639 
z"/>
<path fill="#BC855C" opacity="1.000000" stroke="none" 
	d="
M218.525299,187.101807 
	C218.985062,187.840561 218.999435,188.523499 219.027924,189.545364 
	C216.339218,189.905899 213.636414,189.927490 210.489166,189.914688 
	C210.028076,189.201202 210.011398,188.522125 209.986282,187.501648 
	C212.678528,187.122162 215.379227,187.084061 218.525299,187.101807 
z"/>
<path fill="#B57E54" opacity="1.000000" stroke="none" 
	d="
M224.969513,184.497314 
	C222.890213,184.878403 220.827805,184.920395 218.060944,184.654175 
	C215.911026,184.223999 214.465561,184.102036 212.906647,183.737167 
	C212.559647,183.016785 212.326111,182.539307 212.549652,182.055115 
	C216.975693,182.001831 220.944687,181.955276 224.964111,181.962418 
	C225.014572,182.016113 225.114227,182.124649 225.114227,182.124649 
	C225.071625,182.802505 225.029022,183.480362 224.969513,184.497314 
z"/>
<path fill="#B57E54" opacity="1.000000" stroke="none" 
	d="
M224.994324,181.163101 
	C227.060593,180.864807 229.126862,180.566513 231.542358,180.083069 
	C232.376938,180.279160 232.862274,180.660385 234.678024,182.086670 
	C230.839050,182.086670 228.397369,182.086670 225.534973,182.105652 
	C225.114227,182.124649 225.014572,182.016113 224.994827,181.777618 
	C224.975082,181.539108 224.994324,181.163101 224.994324,181.163101 
z"/>
<path fill="#000000" opacity="1.000000" stroke="none" 
	d="
M260.299866,199.011612 
	C256.617371,199.120483 253.254593,199.069962 249.438171,199.093872 
	C248.361679,198.963257 247.738846,198.758240 247.066162,197.814819 
	C247.306183,196.747940 247.594925,196.133347 247.886124,196.132172 
	C259.884155,196.084015 271.882416,196.090958 283.880646,196.090958 
	C284.040100,196.588562 284.199554,197.086151 284.359009,197.583755 
	C282.592560,198.365494 280.826080,199.147247 279.059601,199.928986 
	C278.021088,199.941772 276.982605,199.954575 275.554993,199.963043 
	C270.317169,199.589859 265.468384,199.221024 260.299866,199.011612 
z"/>
<path fill="#EDDFD5" opacity="1.000000" stroke="none" 
	d="
M279.491547,199.924988 
	C280.826080,199.147247 282.592560,198.365494 284.359009,197.583755 
	C284.199554,197.086151 284.040100,196.588562 283.880646,196.090958 
	C271.882416,196.090958 259.884155,196.084015 247.886124,196.132172 
	C247.594925,196.133347 247.306183,196.747940 246.933167,197.507370 
	C245.082458,195.834381 246.140411,195.127609 248.668732,194.907013 
	C252.054276,194.889374 255.087158,194.938232 258.570740,194.916840 
	C262.384521,194.898468 265.747528,194.950317 270.004791,194.987732 
	C273.269684,194.933823 275.640320,194.894394 278.010986,194.854950 
	C280.104584,194.967834 282.198181,195.080719 284.645294,195.212662 
	C284.733521,196.669876 284.815857,198.029572 284.930359,199.920975 
	C283.043732,199.920975 281.483612,199.920975 279.491547,199.924988 
z"/>
<path fill="#96613A" opacity="1.000000" stroke="none" 
	d="
M278.008331,194.515472 
	C275.640320,194.894394 273.269684,194.933823 270.458435,194.913666 
	C270.015533,194.177124 270.013184,193.500183 270.021118,192.486084 
	C272.399170,192.105606 274.766907,192.062271 277.575806,192.080475 
	C278.013214,192.819992 278.009460,193.497986 278.008331,194.515472 
z"/>
<path fill="#C48C61" opacity="1.000000" stroke="none" 
	d="
M202.032089,228.168060 
	C207.058350,228.114288 212.084610,228.060532 217.573944,228.090637 
	C216.892838,233.640869 212.521774,229.812439 209.448837,231.012390 
	C206.951111,231.014099 204.897354,231.005371 202.417847,230.629639 
	C202.005432,229.564453 202.018753,228.866257 202.032089,228.168060 
z"/>
<path fill="#AC764D" opacity="1.000000" stroke="none" 
	d="
M201.573334,228.086914 
	C202.018753,228.866257 202.005432,229.564453 201.978104,230.610397 
	C197.949173,230.983582 193.934265,231.009033 189.456757,231.007446 
	C188.998428,230.276138 189.002686,229.571823 189.013794,228.515289 
	C193.051971,228.110641 197.083282,228.058212 201.573334,228.086914 
z"/>
<path fill="#9D6841" opacity="1.000000" stroke="none" 
	d="
M229.959518,202.429108 
	C230.119888,201.402588 230.273148,200.825958 230.426392,200.249313 
	C230.735275,200.264542 231.044174,200.279785 231.353058,200.295013 
	C231.353058,205.994797 231.353058,211.694580 231.353058,217.394379 
	C230.886169,217.423508 230.419281,217.452637 229.952393,217.481766 
	C229.952393,212.614166 229.952393,207.746567 229.959518,202.429108 
z"/>
<path fill="#CAA284" opacity="1.000000" stroke="none" 
	d="
M224.527237,181.111969 
	C224.994324,181.163101 224.975082,181.539108 224.944366,181.723907 
	C220.944687,181.955276 216.975693,182.001831 212.071121,182.032745 
	C205.490585,182.012360 199.843430,181.931290 194.203354,182.094971 
	C193.460037,182.116547 192.752991,183.388199 192.024429,184.270844 
	C192.019730,184.460800 192.015884,184.840805 192.015884,184.840805 
	C188.736023,184.781052 184.949356,186.193359 182.138916,181.060837 
	C196.787781,181.060837 210.423965,181.060837 224.527237,181.111969 
z"/>
<path fill="#CDAB91" opacity="1.000000" stroke="none" 
	d="
M192.478760,184.909607 
	C192.015884,184.840805 192.019730,184.460800 192.489731,184.249878 
	C199.646515,184.019318 206.333313,183.999695 213.020096,183.980072 
	C214.465561,184.102036 215.911026,184.223999 217.621277,184.584122 
	C209.571259,184.874313 201.256454,184.926361 192.478760,184.909607 
z"/>
<path fill="#CF9669" opacity="1.000000" stroke="none" 
	d="
M212.906647,183.737152 
	C206.333313,183.999695 199.646515,184.019318 192.494431,184.059906 
	C192.752991,183.388199 193.460037,182.116547 194.203354,182.094971 
	C199.843430,181.931290 205.490585,182.012360 211.614044,182.039490 
	C212.326111,182.539307 212.559647,183.016785 212.906647,183.737152 
z"/>
</svg>